<svg width="520" height="360" viewBox="0 0 520 360" fill="none" xmlns="http://www.w3.org/2000/svg" role="img" aria-labelledby="title desc">
  <title id="title">Combined Helix and Niskayuna placeholder logo</title>
  <desc id="desc">A simple replaceable placeholder mark for the Niskayuna Academic Database.</desc>
  <rect width="520" height="360" rx="18" fill="#ffffff"/>
  <circle cx="178" cy="168" r="82" fill="#faf8f3" stroke="#e5e7eb" stroke-width="4"/>
  <path d="M124 211C159 146 199 116 234 91" stroke="#b9c7dd" stroke-width="18" stroke-linecap="round"/>
  <path d="M126 94C162 160 198 191 236 218" stroke="#f6c453" stroke-width="18" stroke-linecap="round"/>
  <path d="M149 129H214M142 169H219M151 207H203" stroke="#111827" stroke-width="7" stroke-linecap="round" opacity=".8"/>
  <path d="M310 93H421L401 238H330L310 93Z" fill="#b91f2d"/>
  <path d="M329 118H401L389 218H343L329 118Z" fill="#ffffff" opacity=".92"/>
  <path d="M344 140H385M341 162H388M339 184H383" stroke="#b91f2d" stroke-width="8" stroke-linecap="round"/>
  <text x="260" y="286" text-anchor="middle" font-family="Georgia, 'Times New Roman', serif" font-size="31" font-weight="700" fill="#111827">Niskayuna Academic Database</text>
  <text x="260" y="316" text-anchor="middle" font-family="Arial, sans-serif" font-size="18" fill="#6b7280">Helix Research and Development</text>
</svg>
